<?xml version="1.0" encoding="UTF-8"?>
<svg id="SB4_Host" data-name="SB4 Host" xmlns="http://www.w3.org/2000/svg" xmlns:xlink="http://www.w3.org/1999/xlink" viewBox="0 0 1581.6 1466.05">
  <defs>
    <style>
      .cls-1 {
        fill: url(#Gradiente_sem_nome_101);
      }

      .cls-2 {
        fill: url(#Gradiente_sem_nome_101-2);
      }
    </style>
    <linearGradient id="Gradiente_sem_nome_101" data-name="Gradiente sem nome 101" x1="0" y1="949.73" x2="1574.41" y2="949.73" gradientUnits="userSpaceOnUse">
      <stop offset="0" stop-color="#0028ff"/>
      <stop offset="1" stop-color="#0028ff"/>
    </linearGradient>
    <linearGradient id="Gradiente_sem_nome_101-2" data-name="Gradiente sem nome 101" x1="1.92" y1="519.06" x2="1581.6" y2="519.06" xlink:href="#Gradiente_sem_nome_101"/>
  </defs>
  <path class="cls-1" d="M1570.61,964.53c5.01,7.09,5.06,16.56.12,23.7l-25.05,36.21-39.63,57.33-50.21,72.61-20.31,29.38-117.82,170.38-71.22,103c-3.86,5.58-10.22,8.92-17,8.92H347.5c-6.71,0-13-3.26-16.88-8.73l-193.52-273.56-72.14-101.99-16.68-23.59-44.49-62.89c-5.01-7.09-5.06-16.55-.13-23.69l98.99-143.18c3.86-5.58,10.22-8.92,17-8.92h170.79c6.71,0,13,3.26,16.88,8.73l179.35,253.53,65.96,93.26c3.87,5.48,10.17,8.73,16.88,8.73h480.95c6.79,0,13.14-3.33,17-8.92l61-88.23-3.41-4.84-185.53-262.26-73.43-103.81-12.88-18.21-163.75-231.47c-9.69-13.69.1-32.61,16.88-32.61h228.77c6.71,0,13,3.26,16.88,8.73l180.63,255.35,12.89,18.21,67.26,95.08c3.87,5.48,10.17,8.73,16.88,8.73h227.68c6.71,0,13,3.26,16.88,8.73l96.4,136.29Z"/>
  <path class="cls-2" d="M1577.93,512.99l-91.23,131.92c-3.86,5.58-10.22,8.91-17,8.91h-180.73c-6.71,0-13-3.26-16.88-8.73l-180.63-255.35-72.41-102.36c-3.87-5.48-10.17-8.73-16.88-8.73h-470.35c-6.79,0-13.14,3.33-17,8.91l-54.28,78.49c-4.94,7.14-4.89,16.6.12,23.69h0s186.81,264.08,186.81,264.08l12.88,18.21,73.45,103.81,162.45,229.65c9.68,13.69-.11,32.61-16.88,32.61h-227.12c-6.71,0-13-3.26-16.88-8.73l-179.35-253.53-73.43-103.81-6.7-9.47c-3.87-5.48-10.17-8.74-16.88-8.74h-229.02c-6.71,0-13-3.26-16.88-8.73L5.71,493.25c-5.01-7.09-5.06-16.55-.13-23.7l21.13-30.56,34.06-49.25,60.38-87.31,16.45-23.79,120.86-174.77L324.12,8.92c3.86-5.58,10.22-8.92,17-8.92h879.86c6.71,0,13,3.26,16.88,8.73l190.94,269.92,78.59,111.1,18.52,26.19,51.9,73.36c5.01,7.09,5.07,16.55.13,23.7Z"/>
</svg>