<?xml version="1.0" encoding="UTF-8"?>
<svg id="SB4_HOST" data-name="SB4 HOST" xmlns="http://www.w3.org/2000/svg" xmlns:xlink="http://www.w3.org/1999/xlink" viewBox="0 0 2771.19 511.94">
  <defs>
    <style>
      .cls-1, .cls-2 {
        fill: #0028ff;
      }

      .cls-3 {
        fill: url(#Gradiente_sem_nome_101);
      }

      .cls-4 {
        fill: url(#Gradiente_sem_nome_101-2);
      }

      .cls-2 {
        stroke: #0028ff;
        stroke-miterlimit: 10;
        stroke-width: 4px;
      }
    </style>
    <linearGradient id="Gradiente_sem_nome_101" data-name="Gradiente sem nome 101" x1="0" y1="331.64" x2="549.77" y2="331.64" gradientUnits="userSpaceOnUse">
      <stop offset="0" stop-color="#0028ff"/>
      <stop offset="1" stop-color="#0028ff"/>
    </linearGradient>
    <linearGradient id="Gradiente_sem_nome_101-2" data-name="Gradiente sem nome 101" x1=".67" y1="181.25" x2="552.29" y2="181.25" xlink:href="#Gradiente_sem_nome_101"/>
  </defs>
  <g>
    <path class="cls-3" d="M548.45,336.81c1.75,2.48,1.77,5.78.04,8.28l-8.75,12.64-13.84,20.02-17.53,25.36-7.09,10.26-41.14,59.5-24.87,35.97c-1.35,1.95-3.57,3.11-5.94,3.11H121.35c-2.34,0-4.54-1.14-5.89-3.05l-67.58-95.53-25.19-35.61-5.83-8.24-15.53-21.96c-1.75-2.47-1.77-5.78-.04-8.27l34.57-50c1.35-1.95,3.57-3.11,5.94-3.11h59.64c2.34,0,4.54,1.14,5.89,3.05l62.63,88.53,23.03,32.56c1.35,1.91,3.55,3.05,5.89,3.05h167.94c2.37,0,4.59-1.16,5.94-3.11l21.3-30.81-1.19-1.69-64.79-91.58-25.64-36.25-4.5-6.36-57.18-80.83c-3.38-4.78.04-11.39,5.89-11.39h79.89c2.34,0,4.54,1.14,5.89,3.05l63.07,89.17,4.5,6.36,23.49,33.2c1.35,1.91,3.55,3.05,5.89,3.05h79.5c2.34,0,4.54,1.14,5.89,3.05l33.66,47.59Z"/>
    <path class="cls-4" d="M551.01,179.14l-31.86,46.07c-1.35,1.95-3.57,3.11-5.94,3.11h-63.11c-2.34,0-4.54-1.14-5.89-3.05l-63.07-89.17-25.29-35.74c-1.35-1.91-3.55-3.05-5.89-3.05h-164.24c-2.37,0-4.59,1.16-5.94,3.11l-18.95,27.41c-1.72,2.49-1.71,5.8.04,8.27h0s65.23,92.22,65.23,92.22l4.5,6.36,25.65,36.25,56.73,80.19c3.38,4.78-.04,11.39-5.89,11.39h-79.31c-2.34,0-4.54-1.14-5.89-3.05l-62.63-88.53-25.64-36.25-2.34-3.31c-1.35-1.91-3.55-3.05-5.89-3.05H45.39c-2.34,0-4.54-1.14-5.89-3.05L1.99,172.24c-1.75-2.48-1.77-5.78-.04-8.27l7.38-10.67,11.89-17.2,21.08-30.49,5.74-8.31,42.2-61.03L113.18,3.11c1.35-1.95,3.57-3.11,5.94-3.11h307.24c2.34,0,4.54,1.14,5.89,3.05l66.67,94.25,27.44,38.79,6.47,9.15,18.12,25.62c1.75,2.48,1.77,5.78.04,8.27Z"/>
  </g>
  <g>
    <path class="cls-1" d="M1948.21,85.95v339.39c0,4.22-3.42,7.63-7.63,7.63h-71.13c-4.22,0-7.63-3.42-7.63-7.63v-130.74c0-4.22-3.42-7.63-7.63-7.63h-119.12c-4.22,0-7.63,3.42-7.63,7.63v130.74c0,4.22-3.42,7.63-7.63,7.63h-71.13c-4.22,0-7.63-3.42-7.63-7.63V85.95c0-4.22,3.42-7.63,7.63-7.63h71.13c4.22,0,7.63,3.42,7.63,7.63v123.67c0,4.22,3.42,7.63,7.63,7.63h119.12c4.22,0,7.63-3.42,7.63-7.63v-123.67c0-4.22,3.42-7.63,7.63-7.63h71.13c4.22,0,7.63,3.42,7.63,7.63Z"/>
    <path class="cls-1" d="M2064.15,419.34c-22.06-11.79-39.41-28.62-52.04-50.52-12.63-21.89-18.95-47.49-18.95-76.79s6.39-54.48,19.2-76.54c12.8-22.06,30.31-38.98,52.54-50.77,22.23-11.79,47.15-17.68,74.77-17.68s52.54,5.9,74.77,17.68c22.23,11.79,39.74,28.72,52.54,50.77,12.8,22.06,19.2,47.58,19.2,76.54s-6.49,54.48-19.45,76.54c-12.97,22.06-30.65,38.99-53.05,50.77-22.4,11.79-47.41,17.68-75.02,17.68s-52.46-5.89-74.52-17.68ZM2180.86,344.06c11.62-12.12,17.43-29.47,17.43-52.04s-5.65-39.91-16.93-52.04c-11.29-12.12-25.18-18.19-41.68-18.19s-30.82,5.98-41.93,17.93c-11.11,11.96-16.67,29.39-16.67,52.29s5.47,39.91,16.42,52.04c10.94,12.12,24.67,18.19,41.18,18.19s30.56-6.06,42.18-18.19Z"/>
    <path class="cls-1" d="M2381.17,424.39c-19.2-8.41-34.35-19.96-45.47-34.61-9.28-12.23-15.16-25.7-17.63-40.39-.78-4.64,2.84-8.86,7.55-8.86h70.44c3.5,0,6.48,2.41,7.4,5.79,1.96,7.16,6.15,13.14,12.57,17.96,8.08,6.06,18.01,9.09,29.81,9.09,10.78,0,19.11-2.1,25.01-6.31,5.89-4.21,8.84-9.68,8.84-16.42,0-8.08-4.22-14.06-12.63-17.93-8.42-3.87-22.06-8.16-40.92-12.88-20.21-4.71-37.05-9.68-50.52-14.91-13.47-5.22-25.09-13.47-34.86-24.75-9.77-11.28-14.65-26.52-14.65-45.72,0-16.17,4.46-30.9,13.39-44.21,8.92-13.3,22.06-23.82,39.41-31.58,17.34-7.74,37.97-11.62,61.89-11.62,35.36,0,63.23,8.76,83.61,26.27,18.21,15.65,29.49,35.87,33.85,60.67.83,4.71-2.72,9.05-7.51,9.05h-64.87c-3.4,0-6.4-2.25-7.32-5.52-2.01-7.21-5.93-13.11-11.75-17.72-7.25-5.72-16.76-8.59-28.54-8.59-10.1,0-17.86,1.94-23.24,5.81-5.39,3.88-8.08,9.18-8.08,15.91,0,8.08,4.29,14.15,12.88,18.19,8.59,4.04,21.98,8.08,40.16,12.12,20.88,5.39,37.89,10.7,51.03,15.91,13.14,5.23,24.67,13.64,34.61,25.26,9.93,11.62,15.07,27.2,15.41,46.73,0,16.51-4.63,31.24-13.89,44.21-9.27,12.97-22.57,23.16-39.91,30.57-17.35,7.4-37.47,11.11-60.37,11.11-24.59,0-46.48-4.21-65.68-12.63Z"/>
    <path class="cls-1" d="M2771.19,367.35v57.99c0,4.22-3.42,7.63-7.63,7.63h-36.32c-31.32,0-55.75-7.66-73.26-22.99-17.52-15.32-26.27-40.33-26.27-75.02v-104.52c0-4.22-3.42-7.63-7.63-7.63h-19.09c-4.22,0-7.63-3.42-7.63-7.63v-56.48c0-4.22,3.42-7.63,7.63-7.63h19.09c4.22,0,7.63-3.42,7.63-7.63v-53.44c0-4.22,3.42-7.63,7.63-7.63h71.13c4.22,0,7.63,3.42,7.63,7.63v53.44c0,4.22,3.42,7.63,7.63,7.63h41.32c4.22,0,7.63,3.42,7.63,7.63v56.48c0,4.22-3.42,7.63-7.63,7.63h-41.32c-4.22,0-7.63,3.42-7.63,7.63v105.54c0,8.42,2.02,14.48,6.06,18.19,4.04,3.71,10.77,5.56,20.21,5.56h23.19c4.22,0,7.63,3.42,7.63,7.63Z"/>
  </g>
  <g>
    <path class="cls-2" d="M739.28,423.67c-19.41-8.29-34.76-20.23-46.04-35.84-9.19-12.7-14.75-27.27-16.67-43.71-.72-6.15,4.14-11.54,10.33-11.54h54.51c4.96,0,9.19,3.53,10.18,8.39,2.11,10.38,6.8,18.86,14.06,25.45,9.12,8.3,21.65,12.44,37.58,12.44s29.03-3.9,38.32-11.7c9.29-7.79,13.94-18,13.94-30.61,0-10.28-3.16-18.74-9.46-25.38-6.31-6.63-14.19-11.86-23.64-15.68-9.46-3.81-22.48-8.04-39.07-12.69-22.57-6.63-40.9-13.19-55-19.66-14.11-6.47-26.22-16.25-36.33-29.37-10.13-13.1-15.18-30.61-15.18-52.51,0-20.57,5.14-38.49,15.43-53.75,10.28-15.26,24.71-26.95,43.3-35.09,18.58-8.13,39.82-12.19,63.71-12.19,35.84,0,64.95,8.71,87.35,26.13,19.42,15.1,31.29,35.39,35.62,60.84,1.07,6.32-3.85,12.07-10.26,12.07h-56.01c-4.72,0-8.94-3.16-10.05-7.75-2.05-8.53-6.73-15.82-14.06-21.86-9.46-7.79-21.98-11.7-37.58-11.7-13.61,0-24.47,3.48-32.6,10.45-8.13,6.97-12.19,17.09-12.19,30.36,0,9.29,3.06,17.01,9.21,23.14,6.14,6.14,13.76,11.12,22.9,14.93,9.12,3.82,21.98,8.21,38.57,13.19,22.56,6.64,40.98,13.28,55.25,19.91,14.26,6.64,26.54,16.6,36.83,29.86,10.28,13.27,15.43,30.7,15.43,52.26,0,18.59-4.81,35.84-14.43,51.76-9.63,15.93-23.73,28.62-42.31,38.07-18.59,9.46-40.65,14.19-66.2,14.19-24.23,0-46.04-4.15-65.45-12.44Z"/>
    <path class="cls-2" d="M1205.23,282.95c12.79,16.16,19.19,34.67,19.19,55.54,0,18.86-4.63,35.43-13.88,49.74-9.26,14.31-22.64,25.5-40.14,33.58-17.51,8.08-38.21,12.12-62.11,12.12h-145.75c-3.45,0-6.24-2.79-6.24-6.24V87.72c0-3.45,2.79-6.24,6.24-6.24h139.18c23.9,0,44.51,3.87,61.85,11.61,17.33,7.75,30.46,18.52,39.38,32.32,8.91,13.81,13.38,29.46,13.38,46.96,0,20.54-5.48,37.7-16.41,51.5-7.54,9.51-16.79,17.1-27.76,22.77-4.77,2.47-4.41,9.3.55,11.35,12.61,5.2,23.44,13.51,32.51,24.96ZM1026.99,220.66c0,3.45,2.79,6.24,6.24,6.24h58.39c16.83,0,29.79-3.79,38.88-11.36,9.09-7.57,13.63-18.43,13.63-32.57s-4.54-25.07-13.63-32.82c-9.09-7.74-22.05-11.61-38.88-11.61h-58.39c-3.45,0-6.24,2.79-6.24,6.24v75.88ZM1138.33,364.24c9.59-8.08,14.39-19.52,14.39-34.34s-5.05-27.01-15.15-35.6-23.73-12.88-40.9-12.88h-63.44c-3.45,0-6.24,2.79-6.24,6.24v82.45c0,3.45,2.79,6.24,6.24,6.24h64.96c17.17,0,30.55-4.04,40.14-12.12Z"/>
    <path class="cls-2" d="M1247.29,352.96v-40.41c0-2.09.64-4.14,1.84-5.85l155.18-222.09c1.91-2.74,5.04-4.36,8.37-4.36h64.25c5.64,0,10.22,4.57,10.22,10.22v202.78c0,5.64,4.57,10.22,10.22,10.22h22.64c5.64,0,10.22,4.57,10.22,10.22v39.29c0,5.64-4.57,10.22-10.22,10.22h-22.64c-5.64,0-10.22,4.57-10.22,10.22v49.08c0,5.64-4.57,10.22-10.22,10.22h-48.1c-5.64,0-10.22-4.57-10.22-10.22v-49.08c0-5.64-4.57-10.22-10.22-10.22h-150.89c-5.64,0-10.22-4.57-10.22-10.22ZM1404.32,181.59l-70.99,105.97c-4.55,6.79.32,15.9,8.49,15.9h70.99c5.64,0,10.22-4.57,10.22-10.22v-105.97c0-10.1-13.08-14.07-18.7-5.69Z"/>
  </g>
</svg>